/* XPM */
static char * crrcsim_xpm[] = {
"32 32 865 2",
"  	c None",
". 	c #66FFFF",
"+ 	c #62FCFC",
"@ 	c #56DCDC",
"# 	c #4CBEBE",
"$ 	c #53D3D3",
"% 	c #5DECEC",
"& 	c #62F5F5",
"* 	c #61ECEC",
"= 	c #5BE5E5",
"- 	c #55E0E0",
"; 	c #58DDDD",
"> 	c #5DDEDE",
", 	c #5EDEDE",
"' 	c #5FDEDE",
") 	c #5BDEDE",
"! 	c #54DDDD",
"~ 	c #51DDDD",
"{ 	c #50DCDC",
"] 	c #54DADA",
"^ 	c #59D8D8",
"/ 	c #6DDBDB",
"( 	c #79DBDB",
"_ 	c #85E0E0",
": 	c #93E9E9",
"< 	c #9CEEEE",
"[ 	c #A8EDED",
"} 	c #B5EBEC",
"| 	c #C1EAEF",
"1 	c #CDF0F4",
"2 	c #DAF9F8",
"3 	c #F3FEFD",
"4 	c #FFFFFF",
"5 	c #6AFCFC",
"6 	c #61E4E4",
"7 	c #337070",
"8 	c #162525",
"9 	c #297878",
"0 	c #42C8C8",
"a 	c #51EEEE",
"b 	c #51EDED",
"c 	c #4FE4E4",
"d 	c #50E1E1",
"e 	c #4FE0E0",
"f 	c #4DDEDE",
"g 	c #4DDCDC",
"h 	c #4ADCDC",
"i 	c #4BDDDD",
"j 	c #49DDDD",
"k 	c #48DBDB",
"l 	c #4ED9D9",
"m 	c #5CD8D8",
"n 	c #6FE0E0",
"o 	c #78E3E3",
"p 	c #7FE6E6",
"q 	c #8BECEC",
"r 	c #98EEEE",
"s 	c #A8EAEA",
"t 	c #B5E5E4",
"u 	c #C2E5E7",
"v 	c #CDEEF2",
"w 	c #DBF9FA",
"x 	c #F5FFFF",
"y 	c #71FDFD",
"z 	c #60D7D7",
"A 	c #2C5454",
"B 	c #000000",
"C 	c #1A4F4F",
"D 	c #35B6B6",
"E 	c #40EDED",
"F 	c #41EEEE",
"G 	c #43E1E1",
"H 	c #45DEDE",
"I 	c #43DADA",
"J 	c #40D9D9",
"K 	c #3FDADA",
"L 	c #3CD8D8",
"M 	c #3AD8D8",
"N 	c #3BD8D8",
"O 	c #43DBDB",
"P 	c #5BDCDC",
"Q 	c #70E1E1",
"R 	c #79E1E1",
"S 	c #8CEEEE",
"T 	c #99EEEE",
"U 	c #A7EDED",
"V 	c #B2ECED",
"W 	c #BBEEEF",
"X 	c #C7F3F5",
"Y 	c #DAF9FB",
"Z 	c #F5FEFF",
"` 	c #72FFFF",
" .	c #64D8D8",
"..	c #2F5555",
"+.	c #155353",
"@.	c #2AB3B3",
"#.	c #33E9E9",
"$.	c #34E8E8",
"%.	c #34D9D9",
"&.	c #34D6D6",
"*.	c #32D3D3",
"=.	c #2FD5D5",
"-.	c #2FD1D1",
";.	c #30D3D3",
">.	c #36D6D6",
",.	c #3FDBDB",
"'.	c #5EDFDF",
").	c #6FE1E1",
"!.	c #7AE2E2",
"~.	c #83E5E5",
"{.	c #8FECEC",
"].	c #9BEFEF",
"^.	c #A7F1EF",
"/.	c #B3F1F1",
"(.	c #BBF0F2",
"_.	c #C5F1F5",
":.	c #DAF9FD",
"<.	c #EFF8FF",
"[.	c #FFFCFF",
"}.	c #71FFFF",
"|.	c #63D9D9",
"1.	c #305656",
"2.	c #0A4848",
"3.	c #19B0B0",
"4.	c #25E5E5",
"5.	c #28E5E5",
"6.	c #23D5D5",
"7.	c #25CECE",
"8.	c #23CCCC",
"9.	c #24D0D0",
"0.	c #21CECE",
"a.	c #2BCFCF",
"b.	c #34D4D4",
"c.	c #41DADA",
"d.	c #52DEDE",
"e.	c #60E0E0",
"f.	c #6EE3E3",
"g.	c #7BE5E5",
"h.	c #86E8E8",
"i.	c #8FEBEB",
"j.	c #9BF1EF",
"k.	c #A8F0F1",
"l.	c #B6F0F0",
"m.	c #C1EEEE",
"n.	c #CDF0F1",
"o.	c #DEF6FB",
"p.	c #EFF6FF",
"q.	c #FFFAFF",
"r.	c #75FDFD",
"s.	c #67D9D9",
"t.	c #325959",
"u.	c #0C4D4D",
"v.	c #16B3B3",
"w.	c #1BE7E7",
"x.	c #17D8D8",
"y.	c #17D0D0",
"z.	c #16CFCF",
"A.	c #16CECE",
"B.	c #13CCCC",
"C.	c #11C9C9",
"D.	c #1ACACA",
"E.	c #28CECE",
"F.	c #37D4D4",
"G.	c #46DADA",
"H.	c #56DDDD",
"I.	c #67E0E0",
"J.	c #74E5E5",
"K.	c #80EAEA",
"L.	c #8AEDED",
"M.	c #93EFEF",
"N.	c #9DF5F5",
"O.	c #ACF3F3",
"P.	c #B8ECEC",
"Q.	c #C3E9E7",
"R.	c #CDEEEC",
"S.	c #DDF6F8",
"T.	c #F3FCFE",
"U.	c #FFFEFF",
"V.	c #78FDFD",
"W.	c #69DADA",
"X.	c #335A5A",
"Y.	c #165A5A",
"Z.	c #1DBCBC",
"`.	c #1AEFEF",
" +	c #14EAEA",
".+	c #12DADA",
"++	c #0FD3D3",
"@+	c #0DD0D0",
"#+	c #0BC8C8",
"$+	c #09C6C6",
"%+	c #0ECBCB",
"&+	c #1BCFCF",
"*+	c #29D4D4",
"=+	c #36D5D5",
"-+	c #44D7D7",
";+	c #6BE4E4",
">+	c #76EBEB",
",+	c #7BE6E6",
"'+	c #7DDCDC",
")+	c #85D9D9",
"!+	c #9AECEB",
"~+	c #AFF6F4",
"{+	c #BAF2F2",
"]+	c #C2F1F1",
"^+	c #CBF5F5",
"/+	c #DBFBFB",
"(+	c #F3FFFE",
"_+	c #79FBFB",
":+	c #69D9D9",
"<+	c #134D4D",
"[+	c #1EB4B4",
"}+	c #1EEDED",
"|+	c #14E9E9",
"1+	c #09DADA",
"2+	c #04D2D2",
"3+	c #01CCCC",
"4+	c #00C6C6",
"5+	c #05C4C4",
"6+	c #16CDCD",
"7+	c #20D2D2",
"8+	c #2DD7D7",
"9+	c #38D7D7",
"0+	c #42D9D9",
"a+	c #53E1E1",
"b+	c #6BE9E9",
"c+	c #74EAEA",
"d+	c #62C4C4",
"e+	c #427878",
"f+	c #2F4444",
"g+	c #77AAAA",
"h+	c #A7E7E7",
"i+	c #BBFBFB",
"j+	c #C4FCFD",
"k+	c #CEFDFE",
"l+	c #DCFEFF",
"m+	c #F0FFFF",
"n+	c #74FBFB",
"o+	c #66DBDB",
"p+	c #2F5B5B",
"q+	c #000202",
"r+	c #0B3333",
"s+	c #157A7A",
"t+	c #20DBDB",
"u+	c #10EFEF",
"v+	c #02E3E3",
"w+	c #00D8D8",
"x+	c #00D0D0",
"y+	c #00C9C9",
"z+	c #04C6C6",
"A+	c #15C8C8",
"B+	c #24CDCD",
"C+	c #2FD2D2",
"D+	c #39D5D5",
"E+	c #44DCDC",
"F+	c #54E6E6",
"G+	c #6CF0F0",
"H+	c #73EAEA",
"I+	c #599F9F",
"J+	c #385454",
"K+	c #070808",
"L+	c #577575",
"M+	c #9FDBDD",
"N+	c #BBFEFF",
"O+	c #C7FFFF",
"P+	c #D0FBFE",
"Q+	c #EEFCFF",
"R+	c #FFFFFE",
"S+	c #74FDFD",
"T+	c #6AE9E9",
"U+	c #317070",
"V+	c #061313",
"W+	c #030A0A",
"X+	c #0F4949",
"Y+	c #1EA1A1",
"Z+	c #11E1E1",
"`+	c #00EBEB",
" @	c #00E2E2",
".@	c #00D7D7",
"+@	c #00CECE",
"@@	c #11CCCC",
"#@	c #20CECE",
"$@	c #2DD2D2",
"%@	c #38D3D3",
"&@	c #45D8D8",
"*@	c #57E5E5",
"=@	c #6DF5F5",
"-@	c #77EFEF",
";@	c #56A1A1",
">@	c #182A2A",
",@	c #4F7271",
"'@	c #A1E4E2",
")@	c #C1FFFF",
"!@	c #CDFFFF",
"~@	c #D5FCFF",
"{@	c #DCFAFF",
"]@	c #EDFDFF",
"^@	c #78FFFF",
"/@	c #46BABA",
"(@	c #246B6B",
"_@	c #030707",
":@	c #031B1B",
"<@	c #0AA0A0",
"[@	c #02E0E0",
"}@	c #00E8E8",
"|@	c #00E0E0",
"1@	c #00D6D6",
"2@	c #00D2D2",
"3@	c #0CD0D0",
"4@	c #18CBCB",
"5@	c #2ACFCF",
"6@	c #39D6D6",
"7@	c #4ADFDF",
"8@	c #60EBEB",
"9@	c #76F8F8",
"0@	c #81F7F7",
"a@	c #58AAAA",
"b@	c #112929",
"c@	c #588383",
"d@	c #AEF3F1",
"e@	c #CEFFFF",
"f@	c #D8FFFF",
"g@	c #DDFFFF",
"h@	c #E5FDFF",
"i@	c #F7FFFF",
"j@	c #70FEFE",
"k@	c #6EFFFF",
"l@	c #59FDFD",
"m@	c #35B9B9",
"n@	c #0A3030",
"o@	c #020808",
"p@	c #021919",
"q@	c #064040",
"r@	c #03AFAF",
"s@	c #02E1E1",
"t@	c #04EAEA",
"u@	c #08E1E1",
"v@	c #0CD9D9",
"w@	c #10D2D2",
"x@	c #18CCCC",
"y@	c #2AD0D0",
"z@	c #3ADCDC",
"A@	c #4AEAEA",
"B@	c #79FFFF",
"C@	c #86FFFF",
"D@	c #60B7B7",
"E@	c #183333",
"F@	c #5E8989",
"G@	c #B6FAFA",
"H@	c #D7FFFF",
"I@	c #E1FFFF",
"J@	c #E8FFFF",
"K@	c #F3FFFF",
"L@	c #72F1F1",
"M@	c #6DF9F9",
"N@	c #5BFFFF",
"O@	c #4AF2F2",
"P@	c #33A9A9",
"Q@	c #081F1F",
"R@	c #010606",
"S@	c #014B4B",
"T@	c #06B3B3",
"U@	c #13E5E5",
"V@	c #18EDED",
"W@	c #18E1E1",
"X@	c #18DCDC",
"Y@	c #1CD7D7",
"Z@	c #2EDDDD",
"`@	c #41EBEB",
" #	c #51F9F9",
".#	c #62FFFF",
"+#	c #7CF3F3",
"@#	c #589F9F",
"##	c #172626",
"$#	c #3C5D5D",
"%#	c #8FC4C4",
"&#	c #B7F6F5",
"*#	c #CBFFFF",
"=#	c #DBFFFF",
"-#	c #6CEBEB",
";#	c #67F0F0",
">#	c #59F9F9",
",#	c #4EFEFE",
"'#	c #3EE6E6",
")#	c #1B7F7F",
"!#	c #072B2B",
"~#	c #020909",
"{#	c #051212",
"]#	c #064C4C",
"^#	c #19B6B6",
"/#	c #26F0F0",
"(#	c #28F9F9",
"_#	c #24F1F1",
":#	c #26ECEC",
"<#	c #35EFEF",
"[#	c #46F7F7",
"}#	c #54FCFC",
"|#	c #5BF6F6",
"1#	c #5BD8D8",
"2#	c #3B7B7B",
"3#	c #243333",
"4#	c #242D2D",
"5#	c #000101",
"6#	c #1B3131",
"7#	c #334B4B",
"8#	c #3B5050",
"9#	c #445C5A",
"0#	c #5F7776",
"a#	c #849B9A",
"b#	c #D3E5E5",
"c#	c #5FE3E3",
"d#	c #5EE6E6",
"e#	c #55EDED",
"f#	c #4AF4F4",
"g#	c #3CF5F5",
"h#	c #2CD9D9",
"i#	c #137070",
"j#	c #041B1B",
"k#	c #092727",
"l#	c #176060",
"m#	c #36D7D7",
"n#	c #3EFFFF",
"o#	c #39FFFF",
"p#	c #35FFFF",
"q#	c #38F2F2",
"r#	c #3BDFDF",
"s#	c #38BCBC",
"t#	c #2C8989",
"u#	c #113737",
"v#	c #091212",
"w#	c #1B2A2A",
"x#	c #1E2C2C",
"y#	c #131B1B",
"z#	c #070C0C",
"A#	c #060C0C",
"B#	c #171C1C",
"C#	c #283232",
"D#	c #6F7676",
"E#	c #F8F3F3",
"F#	c #59DDDD",
"G#	c #57DEDE",
"H#	c #47E5E5",
"I#	c #3CF1F1",
"J#	c #3AF6F6",
"K#	c #34D7D7",
"L#	c #1E7373",
"M#	c #112D2D",
"N#	c #010202",
"O#	c #061414",
"P#	c #227070",
"Q#	c #46EEEE",
"R#	c #4CFFFF",
"S#	c #3EEBEB",
"T#	c #2CA4A4",
"U#	c #186161",
"V#	c #0B2E2E",
"W#	c #153F3F",
"X#	c #132626",
"Y#	c #132B2B",
"Z#	c #294A4A",
"`#	c #558685",
" $	c #609091",
".$	c #456363",
"+$	c #283B3D",
"@$	c #142021",
"#$	c #0E1111",
"$$	c #1C1E1E",
"%$	c #747878",
"&$	c #F7F0F0",
"*$	c #55DCDC",
"=$	c #53DADA",
"-$	c #4BDADA",
";$	c #44DDDD",
">$	c #41EAEA",
",$	c #45FAFA",
"'$	c #4DFDFD",
")$	c #44D5D5",
"!$	c #287070",
"~$	c #061010",
"{$	c #072020",
"]$	c #288383",
"^$	c #41A3A3",
"/$	c #214F4F",
"($	c #133737",
"_$	c #0B2121",
":$	c #040E0E",
"<$	c #081E1E",
"[$	c #0D1E1E",
"}$	c #376E6E",
"|$	c #5EB3B3",
"1$	c #89F2F2",
"2$	c #A2FFFF",
"3$	c #AEFFFF",
"4$	c #B4FFFF",
"5$	c #B8F1F4",
"6$	c #B3DDDF",
"7$	c #AFCECF",
"8$	c #BCD0D1",
"9$	c #E9F0F1",
"0$	c #52DCDC",
"a$	c #4DDADA",
"b$	c #4EE3E3",
"c$	c #54F3F3",
"d$	c #5DFFFF",
"e$	c #4ED3D3",
"f$	c #1D4F4F",
"g$	c #020F0F",
"h$	c #051C1C",
"i$	c #080E0E",
"j$	c #050B0B",
"k$	c #103030",
"l$	c #2B7171",
"m$	c #59C2C2",
"n$	c #76EDED",
"o$	c #88FFFF",
"p$	c #96FFFF",
"q$	c #B3FFFF",
"r$	c #C0FFFF",
"s$	c #D6FFFF",
"t$	c #E2FFFF",
"u$	c #5DDFDF",
"v$	c #5CDDDD",
"w$	c #58D8D8",
"x$	c #5AD7D7",
"y$	c #61E9E9",
"z$	c #66F8F8",
"A$	c #63FBFB",
"B$	c #52D1D1",
"C$	c #358282",
"D$	c #0B1919",
"E$	c #020404",
"F$	c #1C3333",
"G$	c #1C4040",
"H$	c #368D8D",
"I$	c #4BC7C7",
"J$	c #64F8F8",
"K$	c #70FFFF",
"L$	c #7BFFFF",
"M$	c #84FCFC",
"N$	c #8EF7F7",
"O$	c #98F6F6",
"P$	c #A9FAFA",
"Q$	c #B4FDFE",
"R$	c #BFFEFF",
"S$	c #DCFFFF",
"T$	c #E9FFFF",
"U$	c #FBFFFF",
"V$	c #67E4E4",
"W$	c #65E1E1",
"X$	c #64D9D9",
"Y$	c #66DDDD",
"Z$	c #68E1E1",
"`$	c #6AF0F0",
" %	c #56C6C6",
".%	c #366F6F",
"+%	c #0D1D1D",
"@%	c #010303",
"#%	c #010505",
"$%	c #133F3F",
"%%	c #378888",
"&%	c #70FAFA",
"*%	c #7DFFFF",
"=%	c #74FFFF",
"-%	c #71F4F4",
";%	c #78EDEB",
">%	c #84EBEA",
",%	c #93EBEB",
"'%	c #9FEFEE",
")%	c #A9EFF0",
"!%	c #B3EFF3",
"~%	c #C2F2F6",
"{%	c #D0F9FA",
"]%	c #DBFCFF",
"^%	c #EFFFFF",
"/%	c #75E6E6",
"(%	c #74E4E4",
"_%	c #74E0E0",
":%	c #74E3E3",
"<%	c #77E2E2",
"[%	c #79EAEA",
"}%	c #77EBEB",
"|%	c #68D0D0",
"1%	c #448686",
"2%	c #254242",
"3%	c #356969",
"4%	c #366968",
"5%	c #132525",
"6%	c #255353",
"7%	c #6FDFDF",
"8%	c #8FFFFF",
"9%	c #72EFEF",
"0%	c #74E9E9",
"a%	c #7FE9E9",
"b%	c #89E9E9",
"c%	c #96EDED",
"d%	c #A4EEED",
"e%	c #B0EEEF",
"f%	c #BFF0F1",
"g%	c #CEF4F5",
"h%	c #DDF7FA",
"i%	c #EAF5FC",
"j%	c #FFFAFE",
"k%	c #82E5E5",
"l%	c #7CE8E8",
"m%	c #7DE6E6",
"n%	c #82E8E8",
"o%	c #82E9E9",
"p%	c #80E7E7",
"q%	c #7BDEDE",
"r%	c #7ADCDB",
"s%	c #86F1EF",
"t%	c #89F3F2",
"u%	c #60A3A3",
"v%	c #2D4444",
"w%	c #040606",
"x%	c #1B2626",
"y%	c #345252",
"z%	c #7CD9D9",
"A%	c #99FFFF",
"B%	c #8EFFFF",
"C%	c #81F5F5",
"D%	c #7BE8E8",
"E%	c #7EE1E1",
"F%	c #86E0E0",
"G%	c #92E8E8",
"H%	c #A2EDEC",
"I%	c #B2EDEE",
"J%	c #C1EAED",
"K%	c #CEECED",
"L%	c #E0F7F8",
"M%	c #F5FBFD",
"N%	c #FFFDFF",
"O%	c #89DEDC",
"P%	c #89E1DF",
"Q%	c #89E8E8",
"R%	c #8BE8E6",
"S%	c #8BE7E7",
"T%	c #8BEBEA",
"U%	c #8EF1F1",
"V%	c #92F2F2",
"W%	c #93F5F5",
"X%	c #97FFFF",
"Y%	c #A0FFFF",
"Z%	c #A5FFFF",
"`%	c #98FDFD",
" &	c #66A8A8",
".&	c #192B2B",
"+&	c #010404",
"@&	c #1B2121",
"#&	c #3A4F4F",
"$&	c #7CD6D5",
"%&	c #92F4F4",
"&&	c #8DE8E8",
"*&	c #8FE9E7",
"=&	c #97EBE9",
"-&	c #A3ECEC",
";&	c #AEEAE8",
">&	c #B9ECEA",
",&	c #C8F2F2",
"'&	c #DEF9FA",
")&	c #96E9E7",
"!&	c #96EAE9",
"~&	c #97EDEB",
"{&	c #97EBEB",
"]&	c #97ECEB",
"^&	c #99EFEF",
"/&	c #99F1F2",
"(&	c #9BF4F3",
"_&	c #9CF6F6",
":&	c #9FFDFC",
"<&	c #A4FFFF",
"[&	c #ABFFFF",
"}&	c #ADFFFF",
"|&	c #9BF5F4",
"1&	c #629695",
"2&	c #0C1010",
"3&	c #050707",
"4&	c #3B6363",
"5&	c #8DE1E1",
"6&	c #A2FDFE",
"7&	c #9BF5F5",
"8&	c #9DF0EE",
"9&	c #A3EAE8",
"0&	c #ADE3E3",
"a&	c #BBE7E7",
"b&	c #C9F0F1",
"c&	c #DAF6FB",
"d&	c #F0FBFF",
"e&	c #A0EEEC",
"f&	c #9FEEED",
"g&	c #A0EEED",
"h&	c #A2EEEF",
"i&	c #A0EEEF",
"j&	c #A0EFEF",
"k&	c #A3F1F2",
"l&	c #A6F7F8",
"m&	c #AAFFFF",
"n&	c #B6FFFF",
"o&	c #A1E8E7",
"p&	c #435F60",
"q&	c #0E1818",
"r&	c #050A0A",
"s&	c #5C7676",
"t&	c #A1E4E4",
"u&	c #B9FFFF",
"v&	c #A9F7F7",
"w&	c #A9F2F1",
"x&	c #AEEFED",
"y&	c #BBEFF0",
"z&	c #CBF2F6",
"A&	c #DBF7FD",
"B&	c #EDFCFF",
"C&	c #AEEAED",
"D&	c #AEEAEC",
"E&	c #ACEAEC",
"F&	c #ADE9EC",
"G&	c #ACE9EC",
"H&	c #ACE9EB",
"I&	c #AFECF0",
"J&	c #B3F3F6",
"K&	c #BAFFFF",
"L&	c #C4FFFF",
"M&	c #A1DCDF",
"N&	c #456362",
"O&	c #040C0B",
"P&	c #030404",
"Q&	c #313D3D",
"R&	c #6A8989",
"S&	c #B8F9F9",
"T&	c #CCFFFF",
"U&	c #C9FFFF",
"V&	c #BFFFFF",
"W&	c #B7FFFF",
"X&	c #B8FEFE",
"Y&	c #C0F9FA",
"Z&	c #D0F8FC",
"`&	c #E0FBFF",
" *	c #F2FFFF",
".*	c #BFEAF0",
"+*	c #BDECF0",
"@*	c #BAECF0",
"#*	c #B9ECF0",
"$*	c #BAEBEF",
"%*	c #BBEAEF",
"&*	c #BBEBF0",
"**	c #B9EAF0",
"=*	c #BCECF1",
"-*	c #BEF1F3",
";*	c #BFF7FA",
">*	c #D4FFFF",
",*	c #D1FFFF",
"'*	c #ACDDDE",
")*	c #4F6464",
"!*	c #222A2A",
"~*	c #050C0C",
"{*	c #233333",
"]*	c #779D9C",
"^*	c #C8FFFF",
"/*	c #D5FFFF",
"(*	c #D2FFFF",
"_*	c #D3FFFF",
":*	c #EAFFFF",
"<*	c #FAFFFF",
"[*	c #CAEFF0",
"}*	c #C9F1F2",
"|*	c #C3F4F5",
"1*	c #C0F5F4",
"2*	c #C3F3F4",
"3*	c #C6F2F3",
"4*	c #C9F2F1",
"5*	c #C7F3F2",
"6*	c #C7F4F4",
"7*	c #C4F3F3",
"8*	c #C5F1F2",
"9*	c #C5EDEF",
"0*	c #C7F0EF",
"a*	c #CCFBFC",
"b*	c #DEFFFF",
"c*	c #A0CBC9",
"d*	c #425655",
"e*	c #0F1010",
"f*	c #0D1414",
"g*	c #2F3939",
"h*	c #6E8182",
"i*	c #A3CCD0",
"j*	c #BAEEEF",
"k*	c #C8FCFC",
"l*	c #E6FFFF",
"m*	c #CEEAE9",
"n*	c #CEEEEC",
"o*	c #CEF7F6",
"p*	c #CBF8F6",
"q*	c #D1F0F0",
"r*	c #D1F6F4",
"s*	c #CEF8F6",
"t*	c #CBF6F5",
"u*	c #CBF4F4",
"v*	c #CCEFF0",
"w*	c #D0F1EF",
"x*	c #D4FBF9",
"y*	c #E0FFFF",
"z*	c #E4FFFF",
"A*	c #D9FFFF",
"B*	c #A5C4C7",
"C*	c #545E5E",
"D*	c #0F1111",
"E*	c #0A0B0B",
"F*	c #131515",
"G*	c #050909",
"H*	c #1C2D2D",
"I*	c #3D4F4E",
"J*	c #61797A",
"K*	c #96B8BB",
"L*	c #B8DDDE",
"M*	c #D7F8F9",
"N*	c #FDFFFF",
"O*	c #DAF3F1",
"P*	c #DBF4F2",
"Q*	c #DDFAFA",
"R*	c #DEFAFB",
"S*	c #E0FAFB",
"T*	c #DEF8F8",
"U*	c #DEF8F7",
"V*	c #E1FBFB",
"W*	c #E1FCFC",
"X*	c #DCFCFC",
"Y*	c #DBFCFC",
"Z*	c #DCFAFA",
"`*	c #DFF9F9",
" =	c #E0FDFD",
".=	c #F1FFFF",
"+=	c #F6FFFF",
"@=	c #EEFEFE",
"#=	c #C3D5D8",
"$=	c #788183",
"%=	c #494E4E",
"&=	c #444848",
"*=	c #101010",
"==	c #050808",
"-=	c #0A0E0E",
";=	c #060808",
">=	c #5C6C6C",
",=	c #A0ADAE",
"'=	c #FFFDFC",
")=	c #F4FFFE",
"!=	c #F3FEFE",
"~=	c #F0F9FE",
"{=	c #ECF6FD",
"]=	c #F2FCFD",
"^=	c #F4FFFF",
"/=	c #EBF8F8",
"(=	c #C9CFCF",
"_=	c #A2A3A3",
":=	c #777676",
"<=	c #595D5D",
"[=	c #404848",
"}=	c #121717",
"|=	c #090A0A",
"1=	c #090909",
"2=	c #DDD5D5",
"3=	c #FFFEFE",
"4=	c #FFFAFA",
"5=	c #E6DFDF",
"6=	c #D4CDCD",
"7=	c #D1CBCB",
"8=	c #E7E1E1",
". + @ # $ % & * = - ; > , ' ) ! ~ { ] ^ / ( _ : < [ } | 1 2 3 4 ",
"5 6 7 8 9 0 a b c d e f g g h i j k l m n o p q r s t u v w x 4 ",
"y z A B C D E F G H I J K L M N K O g P Q R p S T U V W X Y Z 4 ",
"`  ...B +.@.#.$.%.&.*.*.*.=.-.;.>.,.g '.).!.~.{.].^./.(._.:.<.[.",
"}.|.1.B 2.3.4.5.6.7.8.7.9.0.7.a.b.c.d.e.f.g.h.i.j.k.l.m.n.o.p.q.",
"r.s.t.B u.v.w.w.x.y.z.A.B.C.D.E.F.G.H.I.J.K.L.M.N.O.P.Q.R.S.T.U.",
"V.W.X.B Y.Z.`. +.+++@+#+$+%+&+*+=+-+H.;+>+,+'+)+!+~+{+]+^+/+(+4 ",
"_+:+X.B <+[+}+|+1+2+3+4+5+6+7+8+9+0+a+b+c+d+e+f+g+h+i+j+k+l+m+4 ",
"n+o+p+q+r+s+t+u+v+w+x+y+z+A+B+C+D+E+F+G+H+I+J+K+L+M+N+O+P+:.Q+R+",
"S+T+U+V+W+X+Y+Z+`+ @.@+@3+@@#@$@%@&@*@=@-@;@>@B ,@'@)@!@~@{@]@4 ",
"^@` /@(@_@q+:@<@[@}@|@1@2@3@4@5@6@7@8@9@0@a@b@B c@d@e@f@g@h@i@4 ",
"j@k@l@m@n@o@p@q@r@s@t@u@v@w@x@y@z@A@& B@C@D@E@B F@G@H@I@J@K@4 4 ",
"L@M@N@O@P@Q@R@B S@T@U@V@W@X@Y@Z@`@ #.#^@+#@###B $#%#&#*#=#m+4 4 ",
"-#;#>#,#'#)#!#~#{#]#^#/#(#_#:#<#[#}#|#1#2#3#4#5#6#7#8#9#0#a#b#4 ",
"c#d#e#f#g#h#i#j#q+k#l#m#n#o#p#q#r#s#t#u#B q+v#w#x#y#z#A#B#C#D#E#",
"F#G#e H#I#J#K#L#M#N#O#P#Q#R#S#T#U#V#W#q+X#Y#Z#`# $.$+$@$#$$$%$&$",
"*$=$-$;$>$,$'$)$!$~$B {$]$^$/$($_$:$<$[$}$|$1$2$3$4$5$6$7$8$9$4 ",
"*$0$a$a$b$c$d$.#e$f$B g$h$v#i$j$k$C l$m$n$o$p$2$q$r$*#s$t$m+4 4 ",
"u$v$w$x$> y$z$A$B$C$D$B B E$F$G$H$I$J$K$L$M$N$O$P$Q$R$!@S$T$U$4 ",
"V$W$X$Y$Z$-#`$ %.%+%@%B B #%$%%%&%*%B@=%-%;%>%,%'%)%!%~%{%]%^%4 ",
"/%(%_%:%<%[%}%|%1%2%3%4%5%B R@6%7%8%8%*%9%0%a%b%c%d%e%f%g%h%i%j%",
"~.k%l%m%~.n%o%p%q%r%s%t%u%v%w%x%y%z%A%B%C%D%E%F%G%H%I%J%K%L%M%N%",
"O%P%Q%R%S%T%U%V%W%X%Y%Z%`% &.&+&@&#&$&X%A%%&&&*&=&-&;&>&,&'&Z 4 ",
")&!&~&{&]&^&/&(&_&:&<&[&}&|&1&2&3&N#4&5&[&[&6&7&8&9&0&a&b&c&d&4 ",
"e&e&f&g&e&g&h&i&j&k&l&m&q$n&o&p&q&r&B#s&t&u&n&}&v&w&x&y&z&A&B&4 ",
"C&D&E&E&F&G&G&H&G&F&I&J&K&)@L&M&N&O&P&Q&R&S&T&U&V&W&X&Y&Z&`& *4 ",
".*+*@*#*$*%*%*&*&***=*-*;*O+>*,*'*)*!*~*{*]*^*H@/*(*(*_*=#:*<*4 ",
"[*}*|*1*2*3*4*5*6*7*8*9*0*a*H@b*H@c*d*e*f*g*h*i*j*k*(*S$l*x 4 4 ",
"m*n*o*p*o*q*q*r*s*t*u*v*w*x*H@y*z*A*B*C*D*E*F*G*H*I*J*K*L*M*N*4 ",
"O*P*Q*R*S*T*U*V*W*X*Y*Z*`* =I@:*.=+=@=#=$=%=&=*===-=;=B -=>=,='=",
")=!=~={=<.]=x x x ^= *.=m+K@x <*4 4 4 4 4 /=(=_=:=<=[=}=B |=1=2=",
"4 4 N%j%N%4 4 4 4 4 4 4 4 3=4 4 4 4 4 4 4 4 4 4 4 4 4=5=6=7=8=4 "};
